PathFileType	4	(X/Y/Z)	56_1_38_p0_0-110_filt_butterworth.trc
DataRate	CameraRate	NumFrames	NumMarkers	Units	OrigDataRate	OrigDataStartFrame	OrigNumFrames
38.0	38.0	7	27	m	38.0	68	110
Frame#	Time	RHip			RKnee			RAnkle			RBigToe			RSmallToe			RHeel			LHip			LKnee			LAnkle			LBigToe			LSmallToe			LHeel			Neck			Head			Nose			RShoulder			RElbow			RWrist			RThumb			RIndex			RPinky			LShoulder			LElbow			LWrist			LThumb			LIndex			LPinky			
		X1	Y1	Z1	X2	Y2	Z2	X3	Y3	Z3	X4	Y4	Z4	X5	Y5	Z5	X6	Y6	Z6	X7	Y7	Z7	X8	Y8	Z8	X9	Y9	Z9	X10	Y10	Z10	X11	Y11	Z11	X12	Y12	Z12	X13	Y13	Z13	X14	Y14	Z14	X15	Y15	Z15	X16	Y16	Z16	X17	Y17	Z17	X18	Y18	Z18	X19	Y19	Z19	X20	Y20	Z20	X21	Y21	Z21	X22	Y22	Z22	X23	Y23	Z23	X24	Y24	Z24	X25	Y25	Z25	X26	Y26	Z26	X27	Y27	Z27	
68	1.7894736842105263	0.41965448481675915	0.6600331653756171	0.26367541789825344	0.4263145966606352	0.8119415331905451	0.6618328499816708	0.45953440667169365	1.0621863761338761	1.0687817777063586	0.38333843975129106	0.83104137479529	1.1213370025909766	0.46957946802525463	0.920286378610956	1.1508612739689628	0.46586885960645197	1.1060395527139657	1.0971772833690732	0.2411170643474445	0.7659541684009268	0.24498910177790967	0.28859677662808364	0.9396465936565974	0.6573649477615926	0.3225652961807851	1.1060699250765613	1.0371344380020564	0.24918838664953935	0.8984454676108491	1.112344626292889	0.23094270299929792	0.99655805762762	1.126064428970662	0.3562544405056578	1.1871517902083064	1.0960299500673751	0.32432815759043654	0.5370958859720353	-0.22947779479106956	0.2895846561690404	0.3511596296004208	-0.43965041385223524	0.2708340475044235	0.36695091130638335	-0.2969840707209574	0.4672122101855354	0.49163145771736183	-0.12248545026028759	0.550835318209704	0.6255691127261753	0.11538428193134825	0.5522759350723108	0.6721789891579573	0.37861964919270247	0.5033307661268791	0.6858234306026816	0.480324076974307	0.5215456138203798	0.6995716701321785	0.5041896433663583	0.5630440543373294	0.7264877324410582	0.5009674469783123	0.17044872922323034	0.585335949755326	-0.1607245588704826	0.14781033034740845	0.7506868340676541	0.08221231231210699	0.15155654141288025	0.8329441350620449	0.3284820586438484	0.18386231651106807	0.8193372444669524	0.43430586358821366	0.15995263212473076	0.8669604061293645	0.4572418776742337	0.14189553509452987	0.8681448649039742	0.4382306386564087
69	1.8157894736842104	0.41947568028434234	0.6600299004632956	0.2636536799202701	0.4263268017767605	0.8119612990155026	0.661876859519157	0.45863956148044205	1.0604913433437924	1.0663316377818304	0.3831545739523051	0.8308607330190751	1.1213128530987657	0.4696014694720416	0.9203949663036364	1.1509080797937914	0.4660849519285048	1.1063559184630487	1.097422136596607	0.24099752662382223	0.7661655033727219	0.24556562733344617	0.2862591037126212	0.9357785205894821	0.6568989896653322	0.3225642447654774	1.1060098508387757	1.0391136333030733	0.24920298150637177	0.898596382060582	1.1121682349138904	0.23092781323128975	0.9965141053239468	1.1259980246857855	0.3562030165519993	1.1872162902299022	1.0959184667759805	0.324299071605455	0.5372861018739704	-0.22939962715902185	0.289265924600612	0.35068797353650905	-0.4396756180821668	0.2708480222526831	0.36696174450051916	-0.2969371876098904	0.4671487451705578	0.49165414485156517	-0.12229669249900835	0.5508552704713947	0.6256349330654528	0.11539845244409896	0.5521377928197986	0.6718321920487103	0.3786210854864557	0.503548811132996	0.6860489973170611	0.48053893431106864	0.522255517283533	0.700630631535942	0.5040855409716225	0.5630111894119942	0.726658156910728	0.500951991821512	0.17045115819271528	0.5853522434212819	-0.16072675348147683	0.14780396486305786	0.7505492376808189	0.0821809944336216	0.15155761681426133	0.8328788363062841	0.32847751918013185	0.1840399793642953	0.8193016178895505	0.43427052613016626	0.16008654369561695	0.86697593232573	0.45714848118771495	0.14229568773776174	0.8688896186480723	0.438558838306404
70	1.8421052631578947	0.4206209105766415	0.6599461862801927	0.26364744909274057	0.42631641466687975	0.8119451120822336	0.6621433596339126	0.45816597014814564	1.05959789280443	1.0649514713725547	0.3828033854516515	0.8305456823730473	1.1212874106450361	0.4694800750857966	0.9202825175259306	1.1509187878075946	0.46587463489757486	1.106035097802625	1.0976307120766498	0.24106620116345379	0.7660488188347487	0.24578452585277522	0.2821681871581775	0.9292420884566439	0.6560776890018802	0.32259431132465144	1.1061077706996285	1.040477327117609	0.24935470963559608	0.8994833725623264	1.1122068153133495	0.2309205574144076	0.9965089140660031	1.1259170531130227	0.35629895433018277	1.1875601144554067	1.096151652585302	0.32426027019758163	0.5372895332438536	-0.22959824883197	0.2891851033160767	0.35056963306003386	-0.439679865391757	0.2708550355861959	0.3670052028648238	-0.2969575101105718	0.46712610900655327	0.491623631091282	-0.12226105227680964	0.5508732994644013	0.6257117027482662	0.1154128966313484	0.5551048386205274	0.6799423244111664	0.3787876056479767	0.5035678896167868	0.6862433034570146	0.48146854106987474	0.5253383144586341	0.7014781023044281	0.5042550472542711	0.5631267960966408	0.7270046704237995	0.5008116984926907	0.17046084268585876	0.5853715264042495	-0.16075215260245945	0.14783444747932661	0.7505546160623526	0.08216639732547096	0.15156448417677676	0.8328762732731834	0.32848303554367314	0.18417295653984578	0.8190971038140208	0.434236169190532	0.1604141321353462	0.8666522404841761	0.45595103805900716	0.1440340842276996	0.8721058384063112	0.4387582524512629
71	1.868421052631579	0.42308355148281696	0.659919439447015	0.263734133213934	0.42631866421059816	0.8119177313952832	0.6622213071319147	0.4581997778941027	1.0596676494608892	1.0650310351533294	0.3826351901686592	0.8302610422909882	1.1212914075565235	0.46930827387004914	0.919884218833031	1.15085980247266	0.4657139923423591	1.1058138530545318	1.0975756090696493	0.24100071725508787	0.7659917768301938	0.24780842483591514	0.2799995998037675	0.9256551718852379	0.6555162685665161	0.32258881254229976	1.106041723829647	1.0405042514158271	0.2491600613497877	0.9001690224010025	1.1133351009355443	0.23092267618386272	0.9965195589951205	1.1259233881771489	0.3563301193450976	1.1875724936714231	1.0961706774678674	0.32433491072226095	0.5373309037633934	-0.2295508479442518	0.2912176607183474	0.35349391398942775	-0.4396661502478037	0.2708696502346389	0.3670396997082784	-0.2969465836462858	0.4673755180039296	0.49158295699880855	-0.12340977279382688	0.5508480538746704	0.6257569533865767	0.11536812858302262	0.5603556344712045	0.6941309813762133	0.37906031153199976	0.5034787868237999	0.686379911029577	0.4832441656329727	0.5257106252618624	0.6986208597636134	0.5043983610252747	0.5635798302037335	0.7276295455087269	0.5008362343625028	0.1704721800696607	0.5853585572662863	-0.1607878676196011	0.14787178288975084	0.7505988032939628	0.08216824394305154	0.15150981859964682	0.8328080895372525	0.32850166420032756	0.18415038848348886	0.8191222231521746	0.434255458805737	0.1602550506280518	0.8664555990876013	0.45515869907094664	0.14578402694020154	0.87549288967064	0.4387356314818495
72	1.894736842105263	0.42486102377696855	0.660427621550703	0.26388111217909294	0.4263517082637894	0.8119389156070129	0.6609734789119841	0.45827249077837906	1.0598094654901236	1.065256504067659	0.3828170405064709	0.8302254754567393	1.1213156546839695	0.4692699568109937	0.9196839798581888	1.150823252539205	0.4682764447777219	1.1098934452721179	1.0986468887552558	0.24077957579168185	0.7661332087760977	0.25086690078433	0.27989693523268283	0.9240782707961519	0.655269760347468	0.32259117548542054	1.105900466938743	1.0391842411802006	0.24867843791052296	0.9013940185621487	1.115466670202253	0.2309095671912443	0.9965392221747562	1.1260026445043936	0.3563062430380101	1.1874530604302582	1.096112796619093	0.324378270050217	0.5373958148910792	-0.22948725273656517	0.29484857528767416	0.3586905682380395	-0.439653665898019	0.27089790028022337	0.3670469096310999	-0.29693703852037406	0.4678547430392024	0.49177189712829855	-0.12522833548292645	0.5507940877306905	0.625774829609676	0.11532487096438605	0.5632800092099917	0.7019975173661498	0.37920313155143026	0.5033748375821869	0.6863816612741265	0.48433569041007296	0.5227494509334176	0.6929075341477411	0.5043002323835001	0.5635221931646194	0.7275754902145288	0.5008588359046274	0.17048146171488618	0.5853389057953573	-0.16080948693809033	0.14787707562236346	0.7505295499762752	0.08217310633166613	0.15132405225612774	0.8326116668662035	0.3285174832347585	0.18295125593521078	0.8194049763163068	0.4342739533998248	0.15844652291152156	0.8673310668700951	0.45692916259244243	0.14406851239859358	0.8726522943871777	0.43853011543022036
73	1.9210526315789476	0.425099435185994	0.6613092362475914	0.26393937278552637	0.4263739125385123	0.8120357970503461	0.6588146229387479	0.45828834908807103	1.0598353028615533	1.0651988087119237	0.38303493403291095	0.8302988466335617	1.121330143305287	0.46930209333065753	0.919666869527425	1.1508170832217746	0.4730326459896943	1.1174113737439844	1.1007027308299007	0.24056497608324012	0.7659487742363474	0.2523043027288129	0.2795766512330623	0.9233850426212187	0.6553144203093827	0.3226667380678476	1.106002679916368	1.0371492846362211	0.24842254235519268	0.9020886590145363	1.1166685630396846	0.23089905829922527	0.9965492418415125	1.1260335414327536	0.3562771255210856	1.1874216395257342	1.0961197332849375	0.32417428124407555	0.5373584394300635	-0.22965341049465723	0.2968587803477819	0.3615754743244409	-0.43964791423656324	0.27090483968793727	0.3670219876919021	-0.29693222627814003	0.4681873047240541	0.4922440863017521	-0.12525851694210738	0.5507731473831544	0.6256526330592203	0.11553672898000725	0.5632401860124114	0.7023760903990728	0.37920137544452887	0.5033202006027958	0.6862219776284877	0.4841554917468567	0.5196954018507113	0.6894757748044302	0.5039235905280008	0.560490224672161	0.7239752611052235	0.5007651116732241	0.17049025570620208	0.5853633057615892	-0.160811979118479	0.14787460929253263	0.7504720542355151	0.08216780585647583	0.15110981684290747	0.8324558635530069	0.328545035779872	0.18068776041028206	0.8182122544171895	0.4342849587185957	0.15556627509630064	0.8682746384563004	0.4596737147937425	0.1401694705830678	0.8656228070712357	0.4382741964383221
74	1.947368421052632	0.4248669539525649	0.6617843508210078	0.26390084994085095	0.4263606301599471	0.8121396312053958	0.6575385062500007	0.45832533645583706	1.0598953096817736	1.0651422248581421	0.38309536528641186	0.8303106360707346	1.1212899680765482	0.4693062323590699	0.9195343046306677	1.1508121963668771	0.4756866036907361	1.1216084110027305	1.1018387613775689	0.24054787067020184	0.7651883778788255	0.2520631134957845	0.28024382728315367	0.9317390197183181	0.6562808305238679	0.32274209472864535	1.1062666748712644	1.035973162781634	0.24842140779473368	0.901875775444766	1.116582660523592	0.23092581345327656	0.9965557037350743	1.126010296630706	0.35625426154180806	1.1874208332875178	1.0961807143714326	0.3243686431404106	0.5376334768622286	-0.2297331341157936	0.29671252423486555	0.3613933699401425	-0.4396349690267276	0.2708794198078226	0.3669891094138303	-0.296905770698789	0.4682163373353939	0.49259394188080147	-0.1234373650565514	0.550803463387084	0.6255267702398019	0.11557057335120996	0.5627466288003309	0.7012805374021713	0.3791770055463862	0.5034261245079028	0.6863179576536186	0.48381832326263047	0.5167959295023609	0.6892904071364179	0.5035670199023028	0.5560618287147583	0.7188320236367424	0.5004656072133806	0.17051102180134248	0.5854315406225965	-0.1608390209822712	0.14789868221155783	0.7506079199678088	0.082165636018664	0.15133844936768553	0.8323849903866605	0.328590662080765	0.179094927815257	0.8178735054152446	0.4344355490415298	0.15404865852865596	0.8689105387448481	0.46090110493099357	0.1380487341321546	0.8608040409498214	0.4382773486797773
